#N canvas 1046 235 283 480 12;
#X obj 20 49 cnv 15 241 54 empty empty empty 20 12 0 14 -233017 -66577
0;
#X text 26 53 connect;
#X obj 82 55 tgl 15 0 connect connect empty 17 7 0 10 -262144 -1 -1
0 1;
#X obj 20 144 cnv 15 241 265 empty empty empty 20 12 0 14 -233017 -66577
0;
#X obj 30 269 vsl 15 128 0 0.999 0 0 ff01 f01 empty 0 -9 0 10 -166441
-1 -262144 0 1;
#X obj 58 269 vsl 15 128 0 0.999 0 0 ff02 f02 empty 0 -9 0 10 -166441
-1 -262144 0 1;
#X obj 86 269 vsl 15 128 0 0.999 0 0 ff03 f03 empty 0 -9 0 10 -166441
-1 -262144 0 1;
#X obj 114 269 vsl 15 128 0 0.999 0 0 ff04 f04 empty 0 -9 0 10 -166441
-1 -262144 0 1;
#X obj 142 269 vsl 15 128 0 0.999 0 0 ff05 f05 empty 0 -9 0 10 -166441
-1 -262144 0 1;
#X obj 170 269 vsl 15 128 0 0.999 0 0 ff06 f06 empty 0 -9 0 10 -166441
-1 -262144 0 1;
#X obj 198 269 vsl 15 128 0 0.999 0 0 ff07 f07 empty 0 -9 0 10 -166441
-1 -262144 0 1;
#X obj 226 269 vsl 15 128 0 0.999 0 0 ff08 f08 empty 0 -9 0 10 -166441
-1 -262144 0 1;
#X obj 30 244 tgl 15 0 mm01 m01 empty 17 7 0 10 -166441 -1 -262144
0 1;
#X obj 58 244 tgl 15 0 mm02 m02 empty 17 7 0 10 -166441 -1 -262144
0 1;
#X obj 86 244 tgl 15 0 mm03 m03 empty 17 7 0 10 -166441 -1 -262144
0 1;
#X obj 114 244 tgl 15 0 mm04 m04 empty 17 7 0 10 -166441 -1 -262144
0 1;
#X obj 142 244 tgl 15 0 mm05 m05 empty 17 7 0 10 -166441 -1 -262144
0 1;
#X obj 170 244 tgl 15 0 mm06 m06 empty 17 7 0 10 -166441 -1 -262144
0 1;
#X obj 198 244 tgl 15 0 mm07 m07 empty 17 7 0 10 -166441 -1 -262144
0 1;
#X obj 226 244 tgl 15 0 mm08 m08 empty 17 7 0 10 -166441 -1 -262144
0 1;
#N canvas 106 99 743 535 mx32pd 0;
#N canvas 1 111 681 682 mx32connect 0;
#X msg 113 283 disconnect;
#X obj 38 22 import mrpeach;
#X obj 198 343 udpsend;
#X obj 38 283 packOSC;
#X obj 48 408 unpackOSC;
#X obj 198 467 tgl 15 0 empty empty empty 17 7 0 10 -234058 -262144
-1 0 1;
#X obj 430 206 bng 15 250 50 0 empty empty empty 17 7 0 10 -262144
-1 -1;
#X msg 198 315 connect 127.0.0.1 10022;
#X obj 48 337 udpreceive 10024;
#X obj 375 422 shell;
#X msg 462 283 nc -l -u 10022 | nc -u 192.168.0.27 10023 | nc -u 127.0.0.1
10024;
#X msg 375 283 killall nc;
#X obj 430 229 t b b;
#X obj 375 206 bng 15 250 50 0 empty empty empty 17 7 0 10 -262144
-1 -1;
#X obj 375 229 t b b;
#X obj 38 63 inlet;
#X obj 375 26 inlet;
#X obj 375 138 moses 1;
#X obj 48 442 outlet;
#X obj 198 534 outlet;
#X obj 375 95 tgl 15 0 empty empty empty 17 7 0 10 -40534 -1 -1 0 1
;
#X obj 430 173 spigot;
#X obj 469 138 -;
#X msg 487 95 1;
#X obj 487 28 loadbang;
#X obj 321 422 spigot;
#X obj 321 393 t f f;
#X msg 73 229 send /xremote;
#X obj 73 207 bng 15 250 50 0 empty empty empty 17 7 0 10 -262144 -1
-1;
#X obj 73 153 tgl 15 0 empty empty empty 17 7 0 10 -262144 -1 -1 0
1;
#X obj 73 179 metro 5000;
#X obj 487 63 bng 15 250 50 0 empty empty empty 17 7 0 10 -262144 -1
-1;
#X msg 451 95 0;
#X obj 190 57 bng 15 250 50 0 empty empty empty 17 7 0 10 -262144 -1
-1;
#N canvas 604 100 714 338 subscribe 0;
#X msg 237 85 send /formatsubscribe hidden/states /-stat/tape/state
/-usb/path /-usb/title /-stat/tape/etime /-stat/tape/rtime /-stat/aes50/state
/-stat/aes50/A /-stat/aes50/B /-show/prepos/current /-stat/usbmounted
/-usb/dir/dirpos /-usb/dir/maxpos /-stat/xcardtype /-stat/xcardsync
/-stat/rtasource /-stat/talk/A /-stat/talk/B /-stat/osc/on /-stat/keysolo
/-stat/urec/state /-stat/urec/etime /-stat/urec/rtime 0 0 4;
#X msg 236 243 send /formatsubscribe hidden/solo /-stat/solosw/** 1
80 20;
#X obj 41 415 outlet;
#X obj 20 7 inlet;
#X obj 20 36 t b b b;
#X msg 239 286 send /formatsubscribe hidden/prefs /-prefs/clockrate
/-prefs/clocksource /-prefs/scene_advance /-prefs/safe_masterlevels
/-prefs/clockmode /-prefs/show_control /-prefs/haflags /-prefs/hardmute
/-prefs/dcamute /-prefs/invertmutes /-prefs/remote/ioenable /-prefs/rta/source
/-prefs/rta/pos /-prefs/rta/det 0 0 10;
#X connect 0 0 2 0;
#X connect 1 0 2 0;
#X connect 3 0 4 0;
#X connect 4 1 1 0;
#X connect 4 2 0 0;
#X connect 5 0 2 0;
#X restore 189 105 pd subscribe;
#N canvas 134 70 450 527 addSlash 0;
#X obj 112 73 unpack f;
#X obj 112 98 == 47;
#X obj 80 203 spigot;
#X obj 80 47 t l l;
#X obj 172 173 -;
#X msg 191 149 1;
#X obj 124 124 t f b;
#X obj 133 203 spigot;
#X msg 133 264 47;
#X obj 133 298 zl join;
#X obj 133 715 zl join;
#X obj 133 231 t b l;
#X obj 133 653 t l b;
#X obj 80 12 inlet;
#X obj 80 748 outlet;
#X msg 179 686 0 0 0;
#X obj 165 376 zl rev;
#X obj 133 618 spigot;
#X obj 133 337 t l l;
#X obj 263 483 != 0;
#X obj 263 450 unpack;
#X obj 224 656 route 0;
#X obj 224 618 spigot;
#X obj 263 527 t f b;
#X msg 281 555 1;
#X obj 263 581 -;
#X obj 221 420 t l l;
#X obj 224 715 zl rev;
#X connect 0 0 1 0;
#X connect 1 0 2 1;
#X connect 1 0 6 0;
#X connect 2 0 14 0;
#X connect 3 0 2 0;
#X connect 3 0 7 0;
#X connect 3 1 0 0;
#X connect 4 0 7 1;
#X connect 5 0 4 1;
#X connect 6 0 4 0;
#X connect 6 1 5 0;
#X connect 7 0 11 0;
#X connect 8 0 9 0;
#X connect 9 0 18 0;
#X connect 10 0 14 0;
#X connect 11 0 8 0;
#X connect 11 1 9 1;
#X connect 12 0 10 0;
#X connect 12 1 15 0;
#X connect 13 0 3 0;
#X connect 15 0 10 1;
#X connect 16 0 26 0;
#X connect 17 0 12 0;
#X connect 18 0 17 0;
#X connect 18 1 16 0;
#X connect 19 0 17 1;
#X connect 19 0 23 0;
#X connect 20 0 19 0;
#X connect 21 0 27 0;
#X connect 22 0 21 0;
#X connect 23 0 25 0;
#X connect 23 1 24 0;
#X connect 24 0 25 1;
#X connect 25 0 22 1;
#X connect 26 0 22 0;
#X connect 26 1 20 0;
#X connect 27 0 14 0;
#X restore 48 367 pd addSlash;
#X obj 407 529 outlet;
#X obj 407 467 tgl 15 0 empty empty empty 17 7 0 10 -234058 -262144
-1 0 1;
#X obj 232 498 s UDPConnect;
#X obj 73 119 r UDPConnect;
#X obj 438 498 s shellConnect;
#X obj 530 95 r shellConnect;
#X obj 198 283 delay 2000;
#X obj 375 175 spigot;
#X obj 439 138 +;
#X obj 375 58 change;
#X connect 0 0 2 0;
#X connect 2 0 26 0;
#X connect 2 0 5 0;
#X connect 3 0 2 0;
#X connect 4 0 18 0;
#X connect 5 0 19 0;
#X connect 5 0 38 0;
#X connect 6 0 12 0;
#X connect 7 0 2 0;
#X connect 8 0 35 0;
#X connect 9 1 37 0;
#X connect 10 0 9 0;
#X connect 11 0 9 0;
#X connect 12 0 42 0;
#X connect 12 1 10 0;
#X connect 13 0 14 0;
#X connect 14 0 11 0;
#X connect 14 1 0 0;
#X connect 15 0 3 0;
#X connect 16 0 45 0;
#X connect 17 0 43 0;
#X connect 17 1 21 0;
#X connect 20 0 17 0;
#X connect 21 0 6 0;
#X connect 22 0 21 1;
#X connect 23 0 22 1;
#X connect 24 0 31 0;
#X connect 25 0 37 0;
#X connect 26 0 25 0;
#X connect 26 1 25 1;
#X connect 27 0 3 0;
#X connect 28 0 27 0;
#X connect 29 0 30 0;
#X connect 30 0 28 0;
#X connect 31 0 23 0;
#X connect 31 0 32 0;
#X connect 32 0 22 0;
#X connect 32 0 44 1;
#X connect 33 0 34 0;
#X connect 35 0 4 0;
#X connect 37 0 36 0;
#X connect 37 0 40 0;
#X connect 39 0 29 0;
#X connect 41 0 22 0;
#X connect 41 0 44 0;
#X connect 42 0 7 0;
#X connect 43 0 13 0;
#X connect 44 0 43 1;
#X connect 45 0 20 0;
#X restore 204 98 pd mx32connect;
#X obj 299 67 tgl 15 0 empty connect empty 17 7 0 10 -4045 -1 -1 0
1;
#X obj 299 122 tgl 15 0 connect empty empty 17 7 0 10 -258049 -262144
-1 0 1;
#X obj 204 59 r OSCsend;
#X obj 310 325 s OSCsend;
#X obj 251 122 tgl 15 0 empty empty empty 17 7 0 10 -258049 -262144
-1 0 1;
#X obj 204 146 s OSCreceive;
#X obj 543 71 r OSCreceive;
#N canvas 18 93 447 646 node_ch 0;
#X msg 210 150 send /node ch/01/mix/fader;
#X msg 210 173 send /node ch/01/mix/on;
#X msg 210 203 send /node ch/02/mix/fader;
#X msg 210 226 send /node ch/02/mix/on;
#X msg 210 256 send /node ch/03/mix/fader;
#X msg 210 279 send /node ch/03/mix/on;
#X msg 210 309 send /node ch/04/mix/fader;
#X msg 210 332 send /node ch/04/mix/on;
#X msg 210 362 send /node ch/05/mix/fader;
#X msg 210 385 send /node ch/05/mix/on;
#X msg 210 415 send /node ch/06/mix/fader;
#X msg 210 438 send /node ch/06/mix/on;
#X msg 210 468 send /node ch/07/mix/fader;
#X msg 210 491 send /node ch/07/mix/on;
#X msg 210 521 send /node ch/08/mix/fader;
#X msg 210 544 send /node ch/08/mix/on;
#X obj 45 18 inlet;
#X obj 71 604 outlet;
#X obj 45 118 delay;
#X obj 45 147 delay;
#X obj 45 176 delay;
#X obj 45 205 delay;
#X obj 45 234 delay;
#X obj 45 263 delay;
#X obj 45 292 delay;
#X obj 45 319 delay;
#X obj 45 348 delay;
#X obj 45 377 delay;
#X obj 45 406 delay;
#X obj 45 435 delay;
#X obj 45 464 delay;
#X obj 45 493 delay;
#X obj 45 522 delay;
#X obj 45 46 t b b;
#X msg 130 78 25;
#X connect 0 0 17 0;
#X connect 1 0 17 0;
#X connect 2 0 17 0;
#X connect 3 0 17 0;
#X connect 4 0 17 0;
#X connect 5 0 17 0;
#X connect 6 0 17 0;
#X connect 7 0 17 0;
#X connect 8 0 17 0;
#X connect 9 0 17 0;
#X connect 10 0 17 0;
#X connect 11 0 17 0;
#X connect 12 0 17 0;
#X connect 13 0 17 0;
#X connect 14 0 17 0;
#X connect 15 0 17 0;
#X connect 16 0 33 0;
#X connect 18 0 1 0;
#X connect 18 0 19 0;
#X connect 19 0 2 0;
#X connect 19 0 20 0;
#X connect 20 0 3 0;
#X connect 20 0 21 0;
#X connect 21 0 4 0;
#X connect 21 0 22 0;
#X connect 22 0 5 0;
#X connect 22 0 23 0;
#X connect 23 0 6 0;
#X connect 23 0 24 0;
#X connect 24 0 7 0;
#X connect 24 0 25 0;
#X connect 25 0 8 0;
#X connect 25 0 26 0;
#X connect 26 0 9 0;
#X connect 26 0 27 0;
#X connect 27 0 10 0;
#X connect 27 0 28 0;
#X connect 28 0 11 0;
#X connect 28 0 29 0;
#X connect 29 0 12 0;
#X connect 29 0 30 0;
#X connect 30 0 13 0;
#X connect 30 0 31 0;
#X connect 31 0 14 0;
#X connect 31 0 32 0;
#X connect 32 0 15 0;
#X connect 33 0 18 0;
#X connect 33 0 0 0;
#X connect 33 1 34 0;
#X connect 34 0 18 1;
#X connect 34 0 32 1;
#X connect 34 0 31 1;
#X connect 34 0 30 1;
#X connect 34 0 29 1;
#X connect 34 0 28 1;
#X connect 34 0 27 1;
#X connect 34 0 26 1;
#X connect 34 0 25 1;
#X connect 34 0 24 1;
#X connect 34 0 23 1;
#X connect 34 0 22 1;
#X connect 34 0 21 1;
#X connect 34 0 20 1;
#X connect 34 0 19 1;
#X restore 310 289 pd node_ch;
#X obj 310 257 bng 15 250 50 0 empty empty empty 17 7 0 10 -262144
-1 -1;
#N canvas 157 215 450 415 exemple 0;
#X obj 168 247 tgl 15 0 empty empty empty 17 7 0 10 -262144 -1 -1 0
1;
#X floatatom 138 192 5 0 0.999 0 - - -, f 5;
#X msg 177 298 send /xinfo;
#X msg 168 274 send /ch/05/mix/on \$1;
#X msg 138 219 send /ch/05/mix/fader \$1;
#X obj 138 42 vsl 15 128 0 0.999 0 0 empty empty empty 0 -9 0 10 -262144
-1 -1 0 1;
#X msg 184 325 send /status;
#X obj 84 373 outlet;
#X connect 0 0 3 0;
#X connect 1 0 4 0;
#X connect 2 0 7 0;
#X connect 3 0 7 0;
#X connect 4 0 7 0;
#X connect 5 0 1 0;
#X connect 6 0 7 0;
#X restore 200 275 pd exemple;
#X obj 310 187 spigot;
#X obj 310 146 t b f;
#X obj 543 119 routeOSC /ch /node;
#N canvas 0 57 1366 660 routeFaderMute 0;
#X obj 179 1005 s f01;
#X obj 189 959 s m01;
#X obj 229 899 s f02;
#X obj 239 853 s m02;
#X obj 279 794 s f03;
#X obj 289 747 s m03;
#X obj 330 684 s f04;
#X obj 340 631 s m04;
#X obj 380 574 s f05;
#X obj 390 521 s m05;
#X obj 430 464 s f06;
#X obj 440 416 s m06;
#X obj 481 358 s f07;
#X obj 491 311 s m07;
#X obj 541 206 s m08;
#X obj 531 256 s f08;
#X obj 582 154 print autre/ch/node;
#X obj 179 66 routeOSC /01/mix/fader /01/mix/on /02/mix/fader /02/mix/on
/03/mix/fader /03/mix/on /04/mix/fader /04/mix/on /05/mix/fader /05/mix/on
/06/mix/fader /06/mix/on /07/mix/fader /07/mix/on /08/mix/fader /08/mix/on
;
#X obj 179 21 inlet;
#X obj 189 154 != 1;
#X obj 239 154 != 1;
#X obj 289 154 != 1;
#X obj 340 154 != 1;
#X obj 390 154 != 1;
#X obj 440 154 != 1;
#X obj 491 155 != 1;
#X obj 541 155 != 1;
#X obj 179 982 t a a;
#X obj 229 876 t a a;
#X obj 279 770 t a a;
#X obj 221 1005 s cf01;
#X obj 189 932 t a a;
#X obj 231 959 s cm01;
#X obj 239 828 t a a;
#X obj 283 853 s cm02;
#X obj 289 722 t a a;
#X obj 330 657 t a a;
#X obj 330 747 s cm03;
#X obj 374 683 s cf04;
#X obj 321 794 s cf03;
#X obj 272 899 s cf02;
#X obj 340 605 t a a;
#X obj 382 631 s cm04;
#X obj 380 547 t a a;
#X obj 423 574 s cf05;
#X obj 390 497 t a a;
#X obj 432 521 s cm05;
#X obj 430 440 t a a;
#X obj 474 464 s cf06;
#X obj 440 388 t a a;
#X obj 482 416 s cm06;
#X obj 481 334 t a a;
#X obj 523 358 s f07;
#X obj 491 287 t a a;
#X obj 533 311 s cm07;
#X obj 531 231 t a a;
#X obj 541 181 t a a;
#X obj 583 206 s cm08;
#X obj 573 256 s cf08;
#X msg 57 161 0;
#X obj 37 87 r lbVal;
#X connect 17 0 27 0;
#X connect 17 1 19 0;
#X connect 17 2 28 0;
#X connect 17 3 20 0;
#X connect 17 4 29 0;
#X connect 17 5 21 0;
#X connect 17 6 36 0;
#X connect 17 7 22 0;
#X connect 17 8 43 0;
#X connect 17 9 23 0;
#X connect 17 10 47 0;
#X connect 17 11 24 0;
#X connect 17 12 51 0;
#X connect 17 13 25 0;
#X connect 17 14 55 0;
#X connect 17 15 26 0;
#X connect 17 16 16 0;
#X connect 18 0 17 0;
#X connect 19 0 31 0;
#X connect 20 0 33 0;
#X connect 21 0 35 0;
#X connect 22 0 41 0;
#X connect 23 0 45 0;
#X connect 24 0 49 0;
#X connect 25 0 53 0;
#X connect 26 0 56 0;
#X connect 27 0 0 0;
#X connect 27 1 30 0;
#X connect 28 0 2 0;
#X connect 28 1 40 0;
#X connect 29 0 4 0;
#X connect 29 1 39 0;
#X connect 31 0 1 0;
#X connect 31 1 32 0;
#X connect 33 0 3 0;
#X connect 33 1 34 0;
#X connect 35 0 5 0;
#X connect 35 1 37 0;
#X connect 36 0 6 0;
#X connect 36 1 38 0;
#X connect 41 0 7 0;
#X connect 41 1 42 0;
#X connect 43 0 8 0;
#X connect 43 1 44 0;
#X connect 45 0 9 0;
#X connect 45 1 46 0;
#X connect 47 0 10 0;
#X connect 47 1 48 0;
#X connect 49 0 11 0;
#X connect 49 1 50 0;
#X connect 51 0 12 0;
#X connect 51 1 52 0;
#X connect 53 0 13 0;
#X connect 53 1 54 0;
#X connect 55 0 15 0;
#X connect 55 1 58 0;
#X connect 56 0 14 0;
#X connect 56 1 57 0;
#X connect 59 0 56 0;
#X connect 59 0 55 0;
#X connect 59 0 53 0;
#X connect 59 0 49 0;
#X connect 59 0 45 0;
#X connect 59 0 43 0;
#X connect 59 0 41 0;
#X connect 59 0 47 0;
#X connect 59 0 51 0;
#X connect 59 0 36 0;
#X connect 59 0 35 0;
#X connect 59 0 29 0;
#X connect 59 0 33 0;
#X connect 59 0 28 0;
#X connect 59 0 31 0;
#X connect 59 0 27 0;
#X connect 60 0 59 0;
#X restore 543 216 pd routeFaderMute;
#N canvas 479 98 686 567 nodebug 0;
#X obj 29 28 inlet;
#X obj 310 535 outlet;
#X obj 29 102 s2l;
#X obj 30 132 unpack s s;
#X obj 332 184 s2l;
#X obj 405 155 list tosymbol;
#X msg 405 124 10;
#X obj 311 503 zl join;
#X obj 332 373 spigot;
#X msg 404 317 1;
#X msg 371 316 0;
#X obj 469 258 sel symbol float OFF ON;
#X obj 388 215 t s;
#X obj 332 407 unpack f;
#X msg 497 301 0;
#X msg 540 302 1;
#X obj 29 63 t s b b;
#X connect 0 0 16 0;
#X connect 2 0 3 0;
#X connect 3 0 7 0;
#X connect 3 1 4 0;
#X connect 4 0 12 0;
#X connect 4 0 8 0;
#X connect 5 0 4 1;
#X connect 6 0 5 0;
#X connect 7 0 1 0;
#X connect 8 0 13 0;
#X connect 9 0 8 1;
#X connect 10 0 8 1;
#X connect 11 1 9 0;
#X connect 11 2 14 0;
#X connect 11 3 15 0;
#X connect 11 4 7 1;
#X connect 12 0 11 0;
#X connect 13 0 7 1;
#X connect 14 0 7 1;
#X connect 15 0 7 1;
#X connect 16 0 2 0;
#X connect 16 1 6 0;
#X connect 16 2 10 0;
#X restore 604 174 pd nodebug;
#X obj 310 220 delay 1000;
#N canvas 0 57 1366 683 sendFaderMute 0;
#X obj 157 38 r mm01;
#X obj 45 38 r ff01;
#X obj 45 108 change;
#X obj 45 198 s OSCsend;
#X msg 45 168 send /ch/01/mix/fader \$1;
#X msg 157 138 send /ch/01/mix/on \$1;
#X obj 335 108 change;
#X obj 335 198 s OSCsend;
#X obj 625 108 change;
#X obj 625 198 s OSCsend;
#X obj 915 108 change;
#X obj 915 198 s OSCsend;
#X obj 45 328 change;
#X obj 45 418 s OSCsend;
#X obj 335 328 change;
#X obj 335 418 s OSCsend;
#X obj 625 328 change;
#X obj 625 418 s OSCsend;
#X obj 915 328 change;
#X obj 915 418 s OSCsend;
#X obj 335 38 r ff02;
#X obj 447 38 r mm02;
#X msg 447 138 send /ch/02/mix/on \$1;
#X msg 335 168 send /ch/02/mix/fader \$1;
#X obj 625 38 r ff03;
#X obj 737 38 r mm03;
#X msg 737 138 send /ch/03/mix/on \$1;
#X msg 625 168 send /ch/03/mix/fader \$1;
#X obj 915 38 r ff04;
#X obj 1027 38 r mm04;
#X msg 1027 138 send /ch/04/mix/on \$1;
#X msg 915 168 send /ch/04/mix/fader \$1;
#X obj 45 258 r ff05;
#X obj 157 258 r mm05;
#X msg 157 358 send /ch/05/mix/on \$1;
#X msg 45 388 send /ch/05/mix/fader \$1;
#X obj 335 258 r ff06;
#X obj 447 258 r mm06;
#X msg 447 358 send /ch/06/mix/on \$1;
#X msg 335 388 send /ch/06/mix/fader \$1;
#X obj 625 258 r ff07;
#X obj 737 258 r mm07;
#X msg 737 358 send /ch/07/mix/on \$1;
#X msg 625 388 send /ch/07/mix/fader \$1;
#X obj 915 258 r ff08;
#X obj 1027 258 r mm08;
#X msg 1027 358 send /ch/08/mix/on \$1;
#X msg 915 388 send /ch/08/mix/fader \$1;
#X obj 157 108 != 1;
#X obj 447 108 != 1;
#X obj 737 108 != 1;
#X obj 1027 108 != 1;
#X obj 157 328 != 1;
#X obj 447 328 != 1;
#X obj 737 328 != 1;
#X obj 1027 328 != 1;
#X obj 101 38 r cf01;
#X obj 209 38 r cm01;
#N canvas 0 0 450 300 ctrlSend 0;
#X obj 76 35 inlet;
#X obj 225 35 inlet;
#X obj 225 65 t b;
#X msg 185 95 0;
#X msg 185 125 1;
#X obj 225 95 delay 50;
#X obj 278 35 inlet;
#X obj 76 196 outlet;
#X obj 76 166 spigot;
#X connect 0 0 8 0;
#X connect 1 0 2 0;
#X connect 2 0 3 0;
#X connect 2 0 5 0;
#X connect 3 0 8 1;
#X connect 4 0 8 1;
#X connect 5 0 4 0;
#X connect 6 0 5 1;
#X connect 8 0 7 0;
#X restore 45 68 pd ctrlSend;
#N canvas 0 0 450 300 ctrlSend 0;
#X obj 76 35 inlet;
#X obj 225 35 inlet;
#X obj 225 65 t b;
#X msg 185 95 0;
#X msg 185 125 1;
#X obj 225 95 delay 50;
#X obj 278 35 inlet;
#X obj 76 196 outlet;
#X obj 76 166 spigot;
#X connect 0 0 8 0;
#X connect 1 0 2 0;
#X connect 2 0 3 0;
#X connect 2 0 5 0;
#X connect 3 0 8 1;
#X connect 4 0 8 1;
#X connect 5 0 4 0;
#X connect 6 0 5 1;
#X connect 8 0 7 0;
#X restore 157 68 pd ctrlSend;
#N canvas 0 0 450 300 ctrlSend 0;
#X obj 76 35 inlet;
#X obj 225 35 inlet;
#X obj 225 65 t b;
#X msg 185 95 0;
#X msg 185 125 1;
#X obj 225 95 delay 50;
#X obj 278 35 inlet;
#X obj 76 196 outlet;
#X obj 76 166 spigot;
#X connect 0 0 8 0;
#X connect 1 0 2 0;
#X connect 2 0 3 0;
#X connect 2 0 5 0;
#X connect 3 0 8 1;
#X connect 4 0 8 1;
#X connect 5 0 4 0;
#X connect 6 0 5 1;
#X connect 8 0 7 0;
#X restore 335 68 pd ctrlSend;
#N canvas 0 0 450 300 ctrlSend 0;
#X obj 76 35 inlet;
#X obj 225 35 inlet;
#X obj 225 65 t b;
#X msg 185 95 0;
#X msg 185 125 1;
#X obj 225 95 delay 50;
#X obj 278 35 inlet;
#X obj 76 196 outlet;
#X obj 76 166 spigot;
#X connect 0 0 8 0;
#X connect 1 0 2 0;
#X connect 2 0 3 0;
#X connect 2 0 5 0;
#X connect 3 0 8 1;
#X connect 4 0 8 1;
#X connect 5 0 4 0;
#X connect 6 0 5 1;
#X connect 8 0 7 0;
#X restore 447 68 pd ctrlSend;
#N canvas 0 0 450 300 ctrlSend 0;
#X obj 76 35 inlet;
#X obj 225 35 inlet;
#X obj 225 65 t b;
#X msg 185 95 0;
#X msg 185 125 1;
#X obj 225 95 delay 50;
#X obj 278 35 inlet;
#X obj 76 196 outlet;
#X obj 76 166 spigot;
#X connect 0 0 8 0;
#X connect 1 0 2 0;
#X connect 2 0 3 0;
#X connect 2 0 5 0;
#X connect 3 0 8 1;
#X connect 4 0 8 1;
#X connect 5 0 4 0;
#X connect 6 0 5 1;
#X connect 8 0 7 0;
#X restore 625 68 pd ctrlSend;
#N canvas 0 0 450 300 ctrlSend 0;
#X obj 76 35 inlet;
#X obj 225 35 inlet;
#X obj 225 65 t b;
#X msg 185 95 0;
#X msg 185 125 1;
#X obj 225 95 delay 50;
#X obj 278 35 inlet;
#X obj 76 196 outlet;
#X obj 76 166 spigot;
#X connect 0 0 8 0;
#X connect 1 0 2 0;
#X connect 2 0 3 0;
#X connect 2 0 5 0;
#X connect 3 0 8 1;
#X connect 4 0 8 1;
#X connect 5 0 4 0;
#X connect 6 0 5 1;
#X connect 8 0 7 0;
#X restore 737 68 pd ctrlSend;
#N canvas 0 0 450 300 ctrlSend 0;
#X obj 76 35 inlet;
#X obj 225 35 inlet;
#X obj 225 65 t b;
#X msg 185 95 0;
#X msg 185 125 1;
#X obj 225 95 delay 50;
#X obj 278 35 inlet;
#X obj 76 196 outlet;
#X obj 76 166 spigot;
#X connect 0 0 8 0;
#X connect 1 0 2 0;
#X connect 2 0 3 0;
#X connect 2 0 5 0;
#X connect 3 0 8 1;
#X connect 4 0 8 1;
#X connect 5 0 4 0;
#X connect 6 0 5 1;
#X connect 8 0 7 0;
#X restore 915 68 pd ctrlSend;
#N canvas 0 0 450 300 ctrlSend 0;
#X obj 76 35 inlet;
#X obj 225 35 inlet;
#X obj 225 65 t b;
#X msg 185 95 0;
#X msg 185 125 1;
#X obj 225 95 delay 50;
#X obj 278 35 inlet;
#X obj 76 196 outlet;
#X obj 76 166 spigot;
#X connect 0 0 8 0;
#X connect 1 0 2 0;
#X connect 2 0 3 0;
#X connect 2 0 5 0;
#X connect 3 0 8 1;
#X connect 4 0 8 1;
#X connect 5 0 4 0;
#X connect 6 0 5 1;
#X connect 8 0 7 0;
#X restore 1027 68 pd ctrlSend;
#N canvas 0 0 450 300 ctrlSend 0;
#X obj 76 35 inlet;
#X obj 225 35 inlet;
#X obj 225 65 t b;
#X msg 185 95 0;
#X msg 185 125 1;
#X obj 225 95 delay 50;
#X obj 278 35 inlet;
#X obj 76 196 outlet;
#X obj 76 166 spigot;
#X connect 0 0 8 0;
#X connect 1 0 2 0;
#X connect 2 0 3 0;
#X connect 2 0 5 0;
#X connect 3 0 8 1;
#X connect 4 0 8 1;
#X connect 5 0 4 0;
#X connect 6 0 5 1;
#X connect 8 0 7 0;
#X restore 45 288 pd ctrlSend;
#N canvas 0 0 450 300 ctrlSend 0;
#X obj 76 35 inlet;
#X obj 225 35 inlet;
#X obj 225 65 t b;
#X msg 185 95 0;
#X msg 185 125 1;
#X obj 225 95 delay 50;
#X obj 278 35 inlet;
#X obj 76 196 outlet;
#X obj 76 166 spigot;
#X connect 0 0 8 0;
#X connect 1 0 2 0;
#X connect 2 0 3 0;
#X connect 2 0 5 0;
#X connect 3 0 8 1;
#X connect 4 0 8 1;
#X connect 5 0 4 0;
#X connect 6 0 5 1;
#X connect 8 0 7 0;
#X restore 157 288 pd ctrlSend;
#N canvas 0 0 450 300 ctrlSend 0;
#X obj 76 35 inlet;
#X obj 225 35 inlet;
#X obj 225 65 t b;
#X msg 185 95 0;
#X msg 185 125 1;
#X obj 225 95 delay 50;
#X obj 278 35 inlet;
#X obj 76 196 outlet;
#X obj 76 166 spigot;
#X connect 0 0 8 0;
#X connect 1 0 2 0;
#X connect 2 0 3 0;
#X connect 2 0 5 0;
#X connect 3 0 8 1;
#X connect 4 0 8 1;
#X connect 5 0 4 0;
#X connect 6 0 5 1;
#X connect 8 0 7 0;
#X restore 335 288 pd ctrlSend;
#N canvas 0 0 450 300 ctrlSend 0;
#X obj 76 35 inlet;
#X obj 225 35 inlet;
#X obj 225 65 t b;
#X msg 185 95 0;
#X msg 185 125 1;
#X obj 225 95 delay 50;
#X obj 278 35 inlet;
#X obj 76 196 outlet;
#X obj 76 166 spigot;
#X connect 0 0 8 0;
#X connect 1 0 2 0;
#X connect 2 0 3 0;
#X connect 2 0 5 0;
#X connect 3 0 8 1;
#X connect 4 0 8 1;
#X connect 5 0 4 0;
#X connect 6 0 5 1;
#X connect 8 0 7 0;
#X restore 447 288 pd ctrlSend;
#N canvas 0 0 450 300 ctrlSend 0;
#X obj 76 35 inlet;
#X obj 225 35 inlet;
#X obj 225 65 t b;
#X msg 185 95 0;
#X msg 185 125 1;
#X obj 225 95 delay 50;
#X obj 278 35 inlet;
#X obj 76 196 outlet;
#X obj 76 166 spigot;
#X connect 0 0 8 0;
#X connect 1 0 2 0;
#X connect 2 0 3 0;
#X connect 2 0 5 0;
#X connect 3 0 8 1;
#X connect 4 0 8 1;
#X connect 5 0 4 0;
#X connect 6 0 5 1;
#X connect 8 0 7 0;
#X restore 625 288 pd ctrlSend;
#N canvas 0 0 450 300 ctrlSend 0;
#X obj 76 35 inlet;
#X obj 225 35 inlet;
#X obj 225 65 t b;
#X msg 185 95 0;
#X msg 185 125 1;
#X obj 225 95 delay 50;
#X obj 278 35 inlet;
#X obj 76 196 outlet;
#X obj 76 166 spigot;
#X connect 0 0 8 0;
#X connect 1 0 2 0;
#X connect 2 0 3 0;
#X connect 2 0 5 0;
#X connect 3 0 8 1;
#X connect 4 0 8 1;
#X connect 5 0 4 0;
#X connect 6 0 5 1;
#X connect 8 0 7 0;
#X restore 737 288 pd ctrlSend;
#N canvas 0 0 450 300 ctrlSend 0;
#X obj 76 35 inlet;
#X obj 225 35 inlet;
#X obj 225 65 t b;
#X msg 185 95 0;
#X msg 185 125 1;
#X obj 225 95 delay 50;
#X obj 278 35 inlet;
#X obj 76 196 outlet;
#X obj 76 166 spigot;
#X connect 0 0 8 0;
#X connect 1 0 2 0;
#X connect 2 0 3 0;
#X connect 2 0 5 0;
#X connect 3 0 8 1;
#X connect 4 0 8 1;
#X connect 5 0 4 0;
#X connect 6 0 5 1;
#X connect 8 0 7 0;
#X restore 915 288 pd ctrlSend;
#N canvas 0 0 450 300 ctrlSend 0;
#X obj 76 35 inlet;
#X obj 225 35 inlet;
#X obj 225 65 t b;
#X msg 185 95 0;
#X msg 185 125 1;
#X obj 225 95 delay 50;
#X obj 278 35 inlet;
#X obj 76 196 outlet;
#X obj 76 166 spigot;
#X connect 0 0 8 0;
#X connect 1 0 2 0;
#X connect 2 0 3 0;
#X connect 2 0 5 0;
#X connect 3 0 8 1;
#X connect 4 0 8 1;
#X connect 5 0 4 0;
#X connect 6 0 5 1;
#X connect 8 0 7 0;
#X restore 1027 288 pd ctrlSend;
#X obj 391 38 r cf02;
#X obj 499 38 r cm02;
#X obj 681 38 r cf03;
#X obj 789 38 r cm03;
#X obj 971 38 r cf04;
#X obj 1079 38 r cm04;
#X obj 101 258 r cf05;
#X obj 209 258 r cm05;
#X obj 391 258 r cf06;
#X obj 499 258 r cm06;
#X obj 681 258 r cf07;
#X obj 789 258 r cm07;
#X obj 971 258 r cf08;
#X obj 1079 258 r cm08;
#X connect 0 0 59 0;
#X connect 1 0 58 0;
#X connect 2 0 4 0;
#X connect 4 0 3 0;
#X connect 5 0 3 0;
#X connect 6 0 23 0;
#X connect 8 0 27 0;
#X connect 10 0 31 0;
#X connect 12 0 35 0;
#X connect 14 0 39 0;
#X connect 16 0 43 0;
#X connect 18 0 47 0;
#X connect 20 0 60 0;
#X connect 21 0 61 0;
#X connect 22 0 7 0;
#X connect 23 0 7 0;
#X connect 24 0 62 0;
#X connect 25 0 63 0;
#X connect 26 0 9 0;
#X connect 27 0 9 0;
#X connect 28 0 64 0;
#X connect 29 0 65 0;
#X connect 30 0 11 0;
#X connect 31 0 11 0;
#X connect 32 0 66 0;
#X connect 33 0 67 0;
#X connect 34 0 13 0;
#X connect 35 0 13 0;
#X connect 36 0 68 0;
#X connect 37 0 69 0;
#X connect 38 0 15 0;
#X connect 39 0 15 0;
#X connect 40 0 70 0;
#X connect 41 0 71 0;
#X connect 42 0 17 0;
#X connect 43 0 17 0;
#X connect 44 0 72 0;
#X connect 45 0 73 0;
#X connect 46 0 19 0;
#X connect 47 0 19 0;
#X connect 48 0 5 0;
#X connect 49 0 22 0;
#X connect 50 0 26 0;
#X connect 51 0 30 0;
#X connect 52 0 34 0;
#X connect 53 0 38 0;
#X connect 54 0 42 0;
#X connect 55 0 46 0;
#X connect 56 0 58 1;
#X connect 57 0 59 1;
#X connect 58 0 2 0;
#X connect 59 0 48 0;
#X connect 60 0 6 0;
#X connect 61 0 49 0;
#X connect 62 0 8 0;
#X connect 63 0 50 0;
#X connect 64 0 10 0;
#X connect 65 0 51 0;
#X connect 66 0 12 0;
#X connect 67 0 52 0;
#X connect 68 0 14 0;
#X connect 69 0 53 0;
#X connect 70 0 16 0;
#X connect 71 0 54 0;
#X connect 72 0 18 0;
#X connect 73 0 55 0;
#X connect 74 0 60 1;
#X connect 75 0 61 1;
#X connect 76 0 62 1;
#X connect 77 0 63 1;
#X connect 78 0 64 1;
#X connect 79 0 65 1;
#X connect 80 0 66 1;
#X connect 81 0 67 1;
#X connect 82 0 68 1;
#X connect 83 0 69 1;
#X connect 84 0 70 1;
#X connect 85 0 71 1;
#X connect 86 0 72 1;
#X connect 87 0 73 1;
#X restore 25 106 pd sendFaderMute;
#N canvas 639 393 450 323 lb 0;
#X obj 144 34 loadbang;
#X obj 144 77 t b b b b;
#X obj 204 109 s lbVal;
#X obj 184 139 s lbColor;
#X obj 208 34 r init;
#X connect 0 0 1 0;
#X connect 1 2 3 0;
#X connect 1 3 2 0;
#X connect 4 0 1 0;
#X restore 25 16 pd lb;
#N canvas 304 450 450 323 initColor 0;
#X msg 187 63 color 1;
#X obj 16 124 s f01;
#X obj 59 124 s m01;
#X obj 106 124 s f02;
#X obj 149 124 s m02;
#X obj 196 124 s f03;
#X obj 239 124 s m03;
#X obj 286 124 s f04;
#X obj 329 124 s m04;
#X obj 16 154 s f05;
#X obj 59 154 s m05;
#X obj 106 154 s f06;
#X obj 149 154 s m06;
#X obj 196 154 s f07;
#X obj 239 154 s m07;
#X obj 286 154 s f08;
#X obj 329 154 s m08;
#X obj 187 22 r lbColor;
#X connect 0 0 1 0;
#X connect 0 0 2 0;
#X connect 0 0 3 0;
#X connect 0 0 4 0;
#X connect 0 0 5 0;
#X connect 0 0 6 0;
#X connect 0 0 7 0;
#X connect 0 0 8 0;
#X connect 0 0 9 0;
#X connect 0 0 10 0;
#X connect 0 0 11 0;
#X connect 0 0 12 0;
#X connect 0 0 13 0;
#X connect 0 0 14 0;
#X connect 0 0 15 0;
#X connect 0 0 16 0;
#X connect 17 0 0 0;
#X restore 25 46 pd initColor;
#N canvas 9 57 1273 503 dynColor 0;
#X obj 187 23 r mm01;
#X obj 21 23 r ff01;
#X obj 187 54 moses 1;
#X msg 205 144 \; m01 color 13;
#X msg 187 185 \; m01 color 16;
#X msg 21 185 \; f01 color 16;
#X msg 77 144 \; f01 color 13;
#X obj 499 54 moses 1;
#X obj 811 54 moses 1;
#X obj 1123 54 moses 1;
#X obj 187 292 moses 1;
#X obj 499 292 moses 1;
#X obj 811 292 moses 1;
#X obj 1123 292 moses 1;
#X obj 333 23 r ff02;
#X msg 389 144 \; f02 color 13;
#X msg 333 185 \; f02 color 16;
#X msg 499 185 \; m02 color 16;
#X msg 517 144 \; m02 color 13;
#X obj 499 23 r mm02;
#X obj 645 23 r ff03;
#X msg 701 144 \; f03 color 13;
#X msg 645 185 \; f03 color 16;
#X msg 811 185 \; m03 color 16;
#X msg 829 144 \; m03 color 13;
#X obj 811 23 r mm03;
#X obj 957 23 r ff04;
#X msg 1013 144 \; f04 color 13;
#X msg 957 185 \; f04 color 16;
#X msg 1123 185 \; m04 color 16;
#X msg 1141 144 \; m04 color 13;
#X obj 1123 23 r mm04;
#X obj 21 261 r ff05;
#X msg 77 382 \; f05 color 13;
#X msg 21 423 \; f05 color 16;
#X msg 187 423 \; m05 color 16;
#X msg 205 382 \; m05 color 13;
#X obj 187 261 r mm05;
#X obj 333 261 r ff06;
#X msg 389 382 \; f06 color 13;
#X msg 333 423 \; f06 color 16;
#X obj 499 261 r mm06;
#X msg 517 382 \; m06 color 13;
#X msg 499 423 \; m06 color 16;
#X obj 645 261 r ff07;
#X msg 701 382 \; f07 color 13;
#X msg 645 423 \; f07 color 16;
#X msg 829 382 \; m07 color 13;
#X msg 811 423 \; m07 color 16;
#X obj 811 261 r mm07;
#X obj 957 261 r ff08;
#X msg 1013 382 \; f08 color 13;
#X msg 957 423 \; f08 color 16;
#X obj 1123 261 r mm08;
#X msg 1141 382 \; m08 color 13;
#X msg 1123 423 \; m08 color 16;
#X obj 77 114 spigot;
#X obj 77 84 t b f;
#X obj 21 114 spigot;
#X obj 21 84 t b f;
#X obj 77 54 == 0;
#X obj 21 54 != 0;
#X obj 389 114 spigot;
#X obj 389 84 t b f;
#X obj 333 114 spigot;
#X obj 333 84 t b f;
#X obj 389 54 == 0;
#X obj 333 54 != 0;
#X obj 701 114 spigot;
#X obj 701 84 t b f;
#X obj 645 114 spigot;
#X obj 645 84 t b f;
#X obj 701 54 == 0;
#X obj 645 54 != 0;
#X obj 1013 114 spigot;
#X obj 1013 84 t b f;
#X obj 957 114 spigot;
#X obj 957 84 t b f;
#X obj 1013 54 == 0;
#X obj 957 54 != 0;
#X obj 77 352 spigot;
#X obj 77 322 t b f;
#X obj 21 352 spigot;
#X obj 21 322 t b f;
#X obj 77 292 == 0;
#X obj 21 292 != 0;
#X obj 389 352 spigot;
#X obj 389 322 t b f;
#X obj 333 352 spigot;
#X obj 333 322 t b f;
#X obj 389 292 == 0;
#X obj 333 292 != 0;
#X obj 701 352 spigot;
#X obj 701 322 t b f;
#X obj 645 352 spigot;
#X obj 645 322 t b f;
#X obj 701 292 == 0;
#X obj 645 292 != 0;
#X obj 1013 352 spigot;
#X obj 1013 322 t b f;
#X obj 957 352 spigot;
#X obj 957 322 t b f;
#X obj 1013 292 == 0;
#X obj 957 292 != 0;
#X connect 0 0 2 0;
#X connect 1 0 60 0;
#X connect 1 0 61 0;
#X connect 2 0 4 0;
#X connect 2 1 3 0;
#X connect 7 0 17 0;
#X connect 7 1 18 0;
#X connect 8 0 23 0;
#X connect 8 1 24 0;
#X connect 9 0 29 0;
#X connect 9 1 30 0;
#X connect 10 0 35 0;
#X connect 10 1 36 0;
#X connect 11 0 43 0;
#X connect 11 1 42 0;
#X connect 12 0 48 0;
#X connect 12 1 47 0;
#X connect 13 0 55 0;
#X connect 13 1 54 0;
#X connect 14 0 67 0;
#X connect 14 0 66 0;
#X connect 19 0 7 0;
#X connect 20 0 73 0;
#X connect 20 0 72 0;
#X connect 25 0 8 0;
#X connect 26 0 79 0;
#X connect 26 0 78 0;
#X connect 31 0 9 0;
#X connect 32 0 85 0;
#X connect 32 0 84 0;
#X connect 37 0 10 0;
#X connect 38 0 91 0;
#X connect 38 0 90 0;
#X connect 41 0 11 0;
#X connect 44 0 97 0;
#X connect 44 0 96 0;
#X connect 49 0 12 0;
#X connect 50 0 103 0;
#X connect 50 0 102 0;
#X connect 53 0 13 0;
#X connect 56 0 6 0;
#X connect 57 0 56 0;
#X connect 57 1 56 1;
#X connect 58 0 5 0;
#X connect 59 0 58 0;
#X connect 59 1 58 1;
#X connect 60 0 57 0;
#X connect 61 0 59 0;
#X connect 62 0 15 0;
#X connect 63 0 62 0;
#X connect 63 1 62 1;
#X connect 64 0 16 0;
#X connect 65 0 64 0;
#X connect 65 1 64 1;
#X connect 66 0 63 0;
#X connect 67 0 65 0;
#X connect 68 0 21 0;
#X connect 69 0 68 0;
#X connect 69 1 68 1;
#X connect 70 0 22 0;
#X connect 71 0 70 0;
#X connect 71 1 70 1;
#X connect 72 0 69 0;
#X connect 73 0 71 0;
#X connect 74 0 27 0;
#X connect 75 0 74 0;
#X connect 75 1 74 1;
#X connect 76 0 28 0;
#X connect 77 0 76 0;
#X connect 77 1 76 1;
#X connect 78 0 75 0;
#X connect 79 0 77 0;
#X connect 80 0 33 0;
#X connect 81 0 80 0;
#X connect 81 1 80 1;
#X connect 82 0 34 0;
#X connect 83 0 82 0;
#X connect 83 1 82 1;
#X connect 84 0 81 0;
#X connect 85 0 83 0;
#X connect 86 0 39 0;
#X connect 87 0 86 0;
#X connect 87 1 86 1;
#X connect 88 0 40 0;
#X connect 89 0 88 0;
#X connect 89 1 88 1;
#X connect 90 0 87 0;
#X connect 91 0 89 0;
#X connect 92 0 45 0;
#X connect 93 0 92 0;
#X connect 93 1 92 1;
#X connect 94 0 46 0;
#X connect 95 0 94 0;
#X connect 95 1 94 1;
#X connect 96 0 93 0;
#X connect 97 0 95 0;
#X connect 98 0 51 0;
#X connect 99 0 98 0;
#X connect 99 1 98 1;
#X connect 100 0 52 0;
#X connect 101 0 100 0;
#X connect 101 1 100 1;
#X connect 102 0 99 0;
#X connect 103 0 101 0;
#X restore 25 76 pd dynColor;
#X obj 411 220 spigot;
#X obj 411 187 t b f;
#X obj 411 146 != 1;
#X obj 411 289 s init;
#X obj 411 257 bng 15 250 50 0 empty empty empty 17 7 0 10 -262144
-1 -1;
#X connect 0 0 6 0;
#X connect 0 1 5 0;
#X connect 0 2 2 0;
#X connect 1 0 0 1;
#X connect 2 0 12 0;
#X connect 2 0 23 0;
#X connect 3 0 0 0;
#X connect 7 0 13 0;
#X connect 8 0 4 0;
#X connect 9 0 8 0;
#X connect 10 0 4 0;
#X connect 11 0 16 0;
#X connect 12 0 11 0;
#X connect 12 1 11 1;
#X connect 13 0 14 0;
#X connect 13 1 15 0;
#X connect 15 0 14 0;
#X connect 16 0 9 0;
#X connect 21 0 25 0;
#X connect 22 0 21 0;
#X connect 22 1 21 1;
#X connect 23 0 22 0;
#X connect 25 0 24 0;
#X restore 20 19 pd mx32pd;
